<?xml version="1.0" encoding="UTF-8" standalone="no"?>
<!-- Created with Inkscape (http://www.inkscape.org/) -->

<svg
   xmlns:v="http://schemas.microsoft.com/visio/2003/SVGExtensions/"
   xmlns:dc="http://purl.org/dc/elements/1.1/"
   xmlns:cc="http://creativecommons.org/ns#"
   xmlns:rdf="http://www.w3.org/1999/02/22-rdf-syntax-ns#"
   xmlns:svg="http://www.w3.org/2000/svg"
   xmlns="http://www.w3.org/2000/svg"
   xmlns:sodipodi="http://sodipodi.sourceforge.net/DTD/sodipodi-0.dtd"
   xmlns:inkscape="http://www.inkscape.org/namespaces/inkscape"
   width="121.9017mm"
   height="33.044838mm"
   viewBox="0 0 121.9017 33.044838"
   version="1.1"
   id="svg1427"
   inkscape:version="0.92.3 (2405546, 2018-03-11)"
   sodipodi:docname="Logo - Name with included Symbol - text to path.svg">
  <defs
     id="defs1421" />
  <sodipodi:namedview
     id="base"
     pagecolor="#ffffff"
     bordercolor="#666666"
     borderopacity="1.0"
     inkscape:pageopacity="0.0"
     inkscape:pageshadow="2"
     inkscape:zoom="0.98994949"
     inkscape:cx="78.348132"
     inkscape:cy="-14.345218"
     inkscape:document-units="mm"
     inkscape:current-layer="layer1"
     showgrid="false"
     inkscape:window-width="1920"
     inkscape:window-height="1001"
     inkscape:window-x="0"
     inkscape:window-y="1200"
     inkscape:window-maximized="1"
     fit-margin-top="0"
     fit-margin-left="0"
     fit-margin-right="0"
     fit-margin-bottom="0" />
  <metadata
     id="metadata1424">
    <rdf:RDF>
      <cc:Work
         rdf:about="">
        <dc:format>image/svg+xml</dc:format>
        <dc:type
           rdf:resource="http://purl.org/dc/dcmitype/StillImage" />
        <dc:title></dc:title>
      </cc:Work>
    </rdf:RDF>
  </metadata>
  <g
     inkscape:label="Layer 1"
     inkscape:groupmode="layer"
     id="layer1"
     transform="translate(-44.504506,-28.292016)">
    <g
       aria-label="proc"
       transform="scale(0.9141768,1.0938803)"
       style="font-size:33.90843201px;font-family:'Radio Space';color-interpolation-filters:sRGB;fill:#595959;fill-rule:evenodd;stroke-width:0.56514168;stroke-linecap:square;stroke-miterlimit:3"
       id="text1246">
      <path
         d="M 62.754603,47.019176 H 52.00563 v 9.053552 H 48.682604 V 43.69615 H 62.17816 q 1.72933,0 1.72933,-0.881619 v -3.797744 q 0,-1.017253 -1.72933,-1.017253 H 48.682604 v -3.323027 h 13.902457 q 4.645455,0 4.645455,3.594294 V 43.4927 q 0,3.492568 -4.475913,3.526476 z"
         style="font-size:33.90843201px;font-family:'Radio Space';color-interpolation-filters:sRGB;fill:#595959;fill-rule:evenodd;stroke-width:0.56514168;stroke-linecap:square;stroke-miterlimit:3"
         id="path860"
         inkscape:connector-curvature="0" />
      <path
         d="M 73.993129,47.019176 V 38.94897 q 0,-1.017253 1.72933,-1.017253 H 88.200762 V 34.60869 H 75.315558 q -4.645455,0 -4.645455,3.594294 v 8.816192 z"
         style="font-size:33.90843201px;font-family:'Radio Space';color-interpolation-filters:sRGB;fill:#595959;fill-rule:evenodd;stroke-width:0.56514168;stroke-linecap:square;stroke-miterlimit:3"
         id="path862"
         inkscape:connector-curvature="0" />
      <path
         d="m 96.682638,43.69615 h 8.477112 q 1.72933,0 1.72933,-0.983344 V 38.94897 q 0,-1.017253 -1.72933,-1.017253 h -8.477112 q -1.695421,0 -1.695421,1.017253 v 3.763836 q 0,0.983344 1.695421,0.983344 z m 8.884012,3.323026 h -9.257005 q -4.645455,0 -4.645455,-3.560385 v -5.255807 q 0,-3.594294 4.645455,-3.594294 h 9.257005 q 4.64545,0 4.64545,3.594294 v 5.255807 q 0,3.560385 -4.64545,3.560385 z"
         style="font-size:33.90843201px;font-family:'Radio Space';color-interpolation-filters:sRGB;fill:#595959;fill-rule:evenodd;stroke-width:0.56514168;stroke-linecap:square;stroke-miterlimit:3"
         id="path864"
         inkscape:connector-curvature="0" />
      <path
         d="m 118.29714,47.019176 h 12.88521 V 43.69615 h -12.4783 q -1.72933,0 -1.72933,-0.983344 V 38.94897 q 0,-1.017253 1.72933,-1.017253 h 12.4783 V 34.60869 h -12.88521 q -4.64545,0 -4.64545,3.594294 v 5.255807 q 0,3.560385 4.64545,3.560385 z"
         style="font-size:33.90843201px;font-family:'Radio Space';color-interpolation-filters:sRGB;fill:#595959;fill-rule:evenodd;stroke-width:0.56514168;stroke-linecap:square;stroke-miterlimit:3"
         id="path866"
         inkscape:connector-curvature="0" />
    </g>
    <g
       style="font-size:medium;color-interpolation-filters:sRGB;fill:none;fill-rule:evenodd;stroke-linecap:square;stroke-miterlimit:3"
       id="shape3-5-8"
       v:mID="3"
       v:groupContext="shape"
       transform="matrix(0.51663939,0,0,0.61819737,129.39647,-37.786489)">
      <title
         id="title1251">Chevron</title>
      <path
         style="fill:#595959;stroke:none;stroke-width:0.23999999;stroke-linecap:round;stroke-linejoin:round"
         inkscape:connector-curvature="0"
         d="m 0,144.3 h 24.66 l 9.75,-10.91 -9.75,-10.92 H 0 l 9.75,10.92 z"
         class="st3"
         id="path1253" />
    </g>
    <g
       style="font-size:medium;color-interpolation-filters:sRGB;fill:none;fill-rule:evenodd;stroke-linecap:square;stroke-miterlimit:3"
       id="shape4-7-2"
       v:mID="4"
       v:groupContext="shape"
       transform="matrix(0.51663939,0,0,0.61819737,122.87891,-40.99114)">
      <title
         id="title1256">Chevron.19</title>
      <path
         style="fill:#595959;stroke:none;stroke-width:0.23999999;stroke-linecap:round;stroke-linejoin:round"
         inkscape:connector-curvature="0"
         d="m 0,144.3 h 12.95 l 5.11,-5.73 -5.11,-5.73 H 0 l 5.12,5.73 z"
         class="st3"
         id="path1258" />
    </g>
    <g
       aria-label="d"
       transform="scale(0.9141768,1.0938803)"
       style="font-size:33.90843201px;font-family:'Radio Space';color-interpolation-filters:sRGB;fill:#595959;fill-rule:evenodd;stroke:none;stroke-width:0.56514168;stroke-linecap:square;stroke-miterlimit:3;stroke-opacity:1"
       id="text1268">
      <path
         d="m 182.02847,47.260128 v -3.323026 h -13.49555 q -1.72933,0 -1.72933,-0.983345 v -3.763836 q 0,-1.017253 1.72933,-1.017253 h 13.49555 V 25.863907 h -3.35693 v 8.985735 h -10.54552 q -4.64546,0 -4.64546,3.594294 v 5.255807 q 0,3.560385 4.64546,3.560385 z"
         style="font-size:33.90843201px;font-family:'Radio Space';color-interpolation-filters:sRGB;fill:#595959;fill-rule:evenodd;stroke:none;stroke-width:0.56514168;stroke-linecap:square;stroke-miterlimit:3;stroke-opacity:1"
         id="path869"
         inkscape:connector-curvature="0" />
    </g>
  </g>
</svg>
