<?xml version="1.0" encoding="UTF-8" standalone="no"?>
<svg
   fill="#a6adb5"
   viewBox="0 0 121.90169 33.044834"
   version="1.1"
   id="svg8"
   sodipodi:docname="proceed.svg"
   width="121.9017"
   height="33.044834"
   inkscape:version="1.3.1 (9b9bdc1480, 2023-11-25, custom)"
   xmlns:inkscape="http://www.inkscape.org/namespaces/inkscape"
   xmlns:sodipodi="http://sodipodi.sourceforge.net/DTD/sodipodi-0.dtd"
   xmlns="http://www.w3.org/2000/svg"
   xmlns:svg="http://www.w3.org/2000/svg">
  <defs
     id="defs8" />
  <sodipodi:namedview
     id="namedview8"
     pagecolor="#ffffff"
     bordercolor="#111111"
     borderopacity="1"
     inkscape:showpageshadow="0"
     inkscape:pageopacity="0"
     inkscape:pagecheckerboard="1"
     inkscape:deskcolor="#d1d1d1"
     showgrid="false"
     inkscape:zoom="10.51667"
     inkscape:cx="60.950851"
     inkscape:cy="8.9857339"
     inkscape:window-width="1920"
     inkscape:window-height="1163"
     inkscape:window-x="0"
     inkscape:window-y="0"
     inkscape:window-maximized="1"
     inkscape:current-layer="g8" />
  <g
     transform="translate(-44.504507,-28.292018)"
     id="g8">
    <g
       transform="scale(0.9141768,1.0938803)"
       id="g4">
      <path
         d="M 62.754603,47.019176 H 52.00563 v 9.053552 H 48.682604 V 43.69615 H 62.17816 q 1.72933,0 1.72933,-0.881619 v -3.797744 q 0,-1.017253 -1.72933,-1.017253 H 48.682604 v -3.323027 h 13.902457 q 4.645455,0 4.645455,3.594294 V 43.4927 q 0,3.492568 -4.475913,3.526476 z"
         id="path1" />
      <path
         d="M 73.993129,47.019176 V 38.94897 q 0,-1.017253 1.72933,-1.017253 H 88.200762 V 34.60869 H 75.315558 q -4.645455,0 -4.645455,3.594294 v 8.816192 z"
         id="path2" />
      <path
         d="m 96.682638,43.69615 h 8.477112 q 1.72933,0 1.72933,-0.983344 V 38.94897 q 0,-1.017253 -1.72933,-1.017253 h -8.477112 q -1.695421,0 -1.695421,1.017253 v 3.763836 q 0,0.983344 1.695421,0.983344 z m 8.884012,3.323026 h -9.257005 q -4.645455,0 -4.645455,-3.560385 v -5.255807 q 0,-3.594294 4.645455,-3.594294 h 9.257005 q 4.64545,0 4.64545,3.594294 v 5.255807 q 0,3.560385 -4.64545,3.560385 z"
         id="path3" />
      <path
         d="m 118.29714,47.019176 h 12.88521 V 43.69615 h -12.4783 q -1.72933,0 -1.72933,-0.983344 V 38.94897 q 0,-1.017253 1.72933,-1.017253 h 12.4783 V 34.60869 h -12.88521 q -4.64545,0 -4.64545,3.594294 v 5.255807 q 0,3.560385 4.64545,3.560385 z"
         id="path4" />
    </g>
    <g
       transform="matrix(0.51663939,0,0,0.61819737,122.87891,-40.99114)"
       id="g5">
      <path
         d="m 0,144.3 h 12.95 l 5.11,-5.73 -5.11,-5.73 H 0 l 5.12,5.73 z"
         id="path5" />
    </g>
    <g
       transform="matrix(0.51663939,0,0,0.61819737,129.39647,-37.786489)"
       id="g6">
      <path
         d="m 0,144.3 h 24.66 l 9.75,-10.91 -9.75,-10.92 H 0 l 9.75,10.92 z"
         id="path6" />
    </g>
    <g
       transform="scale(0.9141768,1.0938803)"
       style="stroke:none;stroke-opacity:1"
       id="g7">
      <path
         d="m 182.02847,47.260128 v -3.323026 h -13.49555 q -1.72933,0 -1.72933,-0.983345 v -3.763836 q 0,-1.017253 1.72933,-1.017253 h 13.49555 V 25.863907 h -3.35693 v 8.985735 h -10.54552 q -4.64546,0 -4.64546,3.594294 v 5.255807 q 0,3.560385 4.64546,3.560385 z"
         style="stroke:none;stroke-opacity:1"
         id="path7" />
    </g>
  </g>
</svg>
