<svg xmlns="http://www.w3.org/2000/svg" fill="#a6adb5" viewBox="0 0 121.9017 18.044838"><g transform="translate(-44.504506,-28.292016)"><g transform="scale(0.9141768,1.0938803)"><path d="M 62.754603,47.019176 H 52.00563 v 9.053552 H 48.682604 V 43.69615 H 62.17816 q 1.72933,0 1.72933,-0.881619 v -3.797744 q 0,-1.017253 -1.72933,-1.017253 H 48.682604 v -3.323027 h 13.902457 q 4.645455,0 4.645455,3.594294 V 43.4927 q 0,3.492568 -4.475913,3.526476 z"/><path d="M 73.993129,47.019176 V 38.94897 q 0,-1.017253 1.72933,-1.017253 H 88.200762 V 34.60869 H 75.315558 q -4.645455,0 -4.645455,3.594294 v 8.816192 z"/><path d="m 96.682638,43.69615 h 8.477112 q 1.72933,0 1.72933,-0.983344 V 38.94897 q 0,-1.017253 -1.72933,-1.017253 h -8.477112 q -1.695421,0 -1.695421,1.017253 v 3.763836 q 0,0.983344 1.695421,0.983344 z m 8.884012,3.323026 h -9.257005 q -4.645455,0 -4.645455,-3.560385 v -5.255807 q 0,-3.594294 4.645455,-3.594294 h 9.257005 q 4.64545,0 4.64545,3.594294 v 5.255807 q 0,3.560385 -4.64545,3.560385 z"/><path d="m 118.29714,47.019176 h 12.88521 V 43.69615 h -12.4783 q -1.72933,0 -1.72933,-0.983344 V 38.94897 q 0,-1.017253 1.72933,-1.017253 h 12.4783 V 34.60869 h -12.88521 q -4.64545,0 -4.64545,3.594294 v 5.255807 q 0,3.560385 4.64545,3.560385 z"/></g><g transform="matrix(0.51663939,0,0,0.61819737,122.87891,-40.99114)"><path d="m 0,144.3 h 12.95 l 5.11,-5.73 -5.11,-5.73 H 0 l 5.12,5.73 z"/></g><g transform="matrix(0.51663939,0,0,0.61819737,129.39647,-37.786489)"><path d="m 0,144.3 h 24.66 l 9.75,-10.91 -9.75,-10.92 H 0 l 9.75,10.92 z" /></g><g transform="scale(0.9141768,1.0938803)" style="stroke: none; stroke-opacity: 1;"><path d="m 182.02847,47.260128 v -3.323026 h -13.49555 q -1.72933,0 -1.72933,-0.983345 v -3.763836 q 0,-1.017253 1.72933,-1.017253 h 13.49555 V 25.863907 h -3.35693 v 8.985735 h -10.54552 q -4.64546,0 -4.64546,3.594294 v 5.255807 q 0,3.560385 4.64546,3.560385 z" style="stroke: none; stroke-opacity: 1;" /></g></g></svg>