<?xml version="1.0" encoding="UTF-8" standalone="no"?>
<!-- Generiert durch Microsoft Visio, SVG Export Logo - Symbol.svg Symbol Logo -->

<svg
   xmlns:dc="http://purl.org/dc/elements/1.1/"
   xmlns:cc="http://creativecommons.org/ns#"
   xmlns:rdf="http://www.w3.org/1999/02/22-rdf-syntax-ns#"
   xmlns:svg="http://www.w3.org/2000/svg"
   xmlns="http://www.w3.org/2000/svg"
   xmlns:sodipodi="http://sodipodi.sourceforge.net/DTD/sodipodi-0.dtd"
   xmlns:inkscape="http://www.inkscape.org/namespaces/inkscape"
   width="4.2018223in"
   height="0.38072607in"
   viewBox="0 0 302.53133 27.412271"
   xml:space="preserve"
   class="st2"
   version="1.1"
   id="svg21"
   sodipodi:docname="PROCEED Labs with Symbol in front - text as path.svg"
   style="font-size:12px;overflow:visible;color-interpolation-filters:sRGB;fill:none;fill-rule:evenodd;stroke-linecap:square;stroke-miterlimit:3"
   inkscape:version="0.92.5 (2060ec1f9f, 2020-04-08)"><defs
     id="defs25" /><sodipodi:namedview
     pagecolor="#ffffff"
     bordercolor="#666666"
     borderopacity="1"
     objecttolerance="10"
     gridtolerance="10"
     guidetolerance="10"
     inkscape:pageopacity="0"
     inkscape:pageshadow="2"
     inkscape:window-width="1920"
     inkscape:window-height="995"
     id="namedview23"
     showgrid="false"
     fit-margin-top="0"
     fit-margin-left="0"
     fit-margin-right="0"
     fit-margin-bottom="0"
     inkscape:zoom="2.2886317"
     inkscape:cx="26.548676"
     inkscape:cy="-7.9280195"
     inkscape:window-x="1920"
     inkscape:window-y="120"
     inkscape:window-maximized="1"
     inkscape:current-layer="svg21"
     showguides="true"
     inkscape:snap-to-guides="true"
     inkscape:lockguides="false"
     inkscape:guide-bbox="true"><sodipodi:guide
       position="65.307097,25.721328"
       orientation="0,1"
       id="guide1140"
       inkscape:locked="false" /><sodipodi:guide
       position="73.880877,1.0088235e-06"
       orientation="0,1"
       id="guide1142"
       inkscape:locked="false" /></sodipodi:namedview><g
     style="font-size:12px;overflow:visible;color-interpolation-filters:sRGB;fill:none;fill-rule:evenodd;stroke-linecap:square;stroke-miterlimit:3"
     id="g19-0-3-2-7-3-7-7-6-2-4-7"
     transform="matrix(0.42131577,0,0,0.42131577,-7.6342418,-5.9432889)"><title
       id="title4-90-4-5-87-3-0-8-4-4-7-6">Symbol Logo</title><g
       id="group1-1-40-6-3-2-9-7-0-2-5-5-1"
       transform="translate(18.12,-18.12)"><title
         id="title6-13-6-9-6-0-4-3-0-1-3-3">Tabelle.1</title><g
         id="shape2-2-7-0-1-6-4-5-1-2-0-1-2"
         transform="translate(35.2879)"><title
           id="title8-41-2-8-2-3-3-0-9-0-4-1">Chevron</title><path
           d="M 0,97.29 H 68.97 L 96.24,66.77 68.97,36.24 H 0 l 27.27,30.53 z"
           class="st1"
           id="path10-13-5-8-9-3-0-3-5-1-2-5"
           inkscape:connector-curvature="0"
           style="fill:#595959;stroke:none;stroke-width:0.23999999;stroke-linecap:round;stroke-linejoin:round" /></g><g
         id="shape3-4-0-8-7-7-4-7-6-7-3-0-9"
         transform="translate(0,-14.5004)"><title
           id="title13-32-9-0-03-2-2-7-4-3-1-9">Chevron.19</title><path
           d="M 0,97.29 H 36.21 L 50.53,81.27 36.21,65.24 H 0 l 14.32,16.03 z"
           class="st1"
           id="path15-1-5-5-7-4-9-3-6-0-3-1"
           inkscape:connector-curvature="0"
           style="fill:#595959;stroke:none;stroke-width:0.23999999;stroke-linecap:round;stroke-linejoin:round" /></g></g></g><g
     aria-label="PROCEED Labs"
     transform="matrix(0.83611123,0,0,0.86079471,-106.6862,-13.653744)"
     style="font-style:normal;font-variant:normal;font-weight:bold;font-stretch:normal;font-size:42.43465805px;line-height:106.08664703px;font-family:Z003;-inkscape-font-specification:'Z003 Bold';letter-spacing:-0.88405544px;word-spacing:4.42027712px;overflow:visible;color-interpolation-filters:sRGB;fill:#595959;fill-opacity:1;fill-rule:evenodd;stroke:none;stroke-linecap:square;stroke-miterlimit:3"
     id="flowRoot825-75-0-2-2-5-9-2-4-0-0-4"><path
       d="M 205.54214,47.263436 V 17.983522 h 14.25805 q 7.12902,0 7.12902,7.129022 v 5.686245 q 0,7.129022 -7.12902,7.129022 h -8.14746 v 9.335625 z m 6.11059,-14.85213 h 7.89285 q 1.27304,0 1.27304,-1.27304 v -6.365199 q 0,-1.27304 -1.27304,-1.27304 h -7.89285 z"
       style="font-style:normal;font-variant:normal;font-weight:bold;font-stretch:normal;font-size:42.43465805px;line-height:106.08664703px;font-family:Oxanium;-inkscape-font-specification:'Oxanium Bold';letter-spacing:-0.88405544px;word-spacing:4.42027712px;fill:#595959;fill-opacity:1"
       id="path827" /><path
       d="M 231.73134,47.263436 V 17.983522 h 14.25804 q 7.12903,0 7.12903,7.129022 v 4.837551 q 0,5.304333 -3.94643,6.619807 l 4.79512,9.420494 -0.72139,1.27304 h -5.2619 l -5.17703,-10.184318 h -4.96485 v 10.184318 z m 6.11059,-15.700824 h 7.89284 q 1.27304,0 1.27304,-1.273039 v -5.516506 q 0,-1.27304 -1.27304,-1.27304 h -7.89284 z"
       style="font-style:normal;font-variant:normal;font-weight:bold;font-stretch:normal;font-size:42.43465805px;line-height:106.08664703px;font-family:Oxanium;-inkscape-font-specification:'Oxanium Bold';letter-spacing:-0.88405544px;word-spacing:4.42027712px;fill:#595959;fill-opacity:1"
       id="path829" /><path
       d="M 257.92055,40.134413 V 25.112544 q 0,-7.129022 7.12902,-7.129022 h 9.6751 q 7.12902,0 7.12902,7.129022 v 15.021869 q 0,7.129023 -7.12902,7.129023 h -9.6751 q -7.12902,0 -7.12902,-7.129023 z m 6.11059,0.339478 q 0,1.273039 1.27304,1.273039 h 9.16588 q 1.27304,0 1.27304,-1.273039 V 24.773067 q 0,-1.27304 -1.27304,-1.27304 h -9.16588 q -1.27304,0 -1.27304,1.27304 z"
       style="font-style:normal;font-variant:normal;font-weight:bold;font-stretch:normal;font-size:42.43465805px;line-height:106.08664703px;font-family:Oxanium;-inkscape-font-specification:'Oxanium Bold';letter-spacing:-0.88405544px;word-spacing:4.42027712px;fill:#595959;fill-opacity:1"
       id="path831" /><path
       d="M 287.08015,40.134413 V 25.112544 q 0,-7.129022 7.12902,-7.129022 h 11.33006 l 2.84312,2.206602 v 3.309903 h -13.91857 q -1.27304,0 -1.27304,1.27304 v 15.700824 q 0,1.273039 1.27304,1.273039 h 13.91857 v 3.309904 l -2.84312,2.206602 h -11.33006 q -7.12902,0 -7.12902,-7.129023 z"
       style="font-style:normal;font-variant:normal;font-weight:bold;font-stretch:normal;font-size:42.43465805px;line-height:106.08664703px;font-family:Oxanium;-inkscape-font-specification:'Oxanium Bold';letter-spacing:-0.88405544px;word-spacing:4.42027712px;fill:#595959;fill-opacity:1"
       id="path833" /><path
       d="M 313.09961,47.263436 V 17.983522 h 20.02916 v 5.516505 H 319.2102 v 5.940853 h 12.64553 v 5.516505 H 319.2102 v 6.789545 h 13.91857 v 5.516506 z"
       style="font-style:normal;font-variant:normal;font-weight:bold;font-stretch:normal;font-size:42.43465805px;line-height:106.08664703px;font-family:Oxanium;-inkscape-font-specification:'Oxanium Bold';letter-spacing:-0.88405544px;word-spacing:4.42027712px;fill:#595959;fill-opacity:1"
       id="path835" /><path
       d="M 337.84602,47.263436 V 17.983522 h 20.02916 v 5.516505 h -13.91857 v 5.940853 h 12.64553 v 5.516505 h -12.64553 v 6.789545 h 13.91857 v 5.516506 z"
       style="font-style:normal;font-variant:normal;font-weight:bold;font-stretch:normal;font-size:42.43465805px;line-height:106.08664703px;font-family:Oxanium;-inkscape-font-specification:'Oxanium Bold';letter-spacing:-0.88405544px;word-spacing:4.42027712px;fill:#595959;fill-opacity:1"
       id="path837" /><path
       d="M 362.59242,47.263436 V 17.983522 h 11.11788 q 11.96657,0 11.96657,11.966573 v 5.346767 q 0,11.966574 -11.96657,11.966574 z m 6.11059,-5.516506 h 5.34677 q 5.5165,0 5.5165,-5.516505 v -7.213892 q 0,-5.516506 -5.5165,-5.516506 h -5.34677 z"
       style="font-style:normal;font-variant:normal;font-weight:bold;font-stretch:normal;font-size:42.43465805px;line-height:106.08664703px;font-family:Oxanium;-inkscape-font-specification:'Oxanium Bold';letter-spacing:-0.88405544px;word-spacing:4.42027712px;fill:#595959;fill-opacity:1"
       id="path839" /><path
       d="M 404.62393,47.263436 V 17.983522 h 6.11059 V 41.74693 h 12.64553 v 5.516506 z"
       style="font-style:normal;font-variant:normal;font-weight:bold;font-stretch:normal;font-size:42.43465805px;line-height:106.08664703px;font-family:Oxanium;-inkscape-font-specification:'Oxanium Bold';letter-spacing:-0.88405544px;word-spacing:4.42027712px;fill:#595959;fill-opacity:1"
       id="path841" /><path
       d="m 432.2559,47.263436 q -6.87442,0 -6.87442,-6.747111 0,-6.74711 6.87442,-6.74711 h 5.85598 v -2.461211 q 0,-1.357909 -1.35791,-1.357909 h -8.99615 v -3.182599 l 2.54608,-1.90956 h 6.78955 q 6.87441,0 6.87441,6.874415 v 15.531085 z m -1.01843,-6.450068 q 0,1.357909 1.35791,1.357909 h 5.5165 v -3.903989 h -5.5165 q -1.35791,0 -1.35791,1.357909 z"
       style="font-style:normal;font-variant:normal;font-weight:bold;font-stretch:normal;font-size:42.43465805px;line-height:106.08664703px;font-family:Oxanium;-inkscape-font-specification:'Oxanium Bold';letter-spacing:-0.88405544px;word-spacing:4.42027712px;fill:#595959;fill-opacity:1"
       id="path843" /><path
       d="M 449.02463,47.263436 V 15.861789 h 5.85598 v 8.996147 h 6.53494 q 6.87441,0 6.87441,6.874415 v 8.65667 q 0,6.874415 -6.87441,6.874415 z m 5.85598,-5.092159 h 6.19546 q 1.35791,0 1.35791,-1.357909 v -9.505364 q 0,-1.357909 -1.35791,-1.357909 h -6.19546 z"
       style="font-style:normal;font-variant:normal;font-weight:bold;font-stretch:normal;font-size:42.43465805px;line-height:106.08664703px;font-family:Oxanium;-inkscape-font-specification:'Oxanium Bold';letter-spacing:-0.88405544px;word-spacing:4.42027712px;fill:#595959;fill-opacity:1"
       id="path845" /><path
       d="m 472.41311,45.353876 v -3.182599 h 9.75998 q 1.44277,0 1.44277,-1.612517 0,-1.654952 -1.18817,-1.867125 l -4.58294,-0.763824 q -5.43164,-0.933562 -5.43164,-6.280329 0,-6.789546 6.87442,-6.789546 h 6.57737 l 2.54608,1.90956 v 3.182599 h -8.78397 q -1.44278,0 -1.44278,1.612517 0,1.697387 1.31547,1.90956 l 4.54051,0.763824 q 5.3892,0.891128 5.3892,6.19546 0,6.83198 -6.91685,6.83198 h -7.55337 z"
       style="font-style:normal;font-variant:normal;font-weight:bold;font-stretch:normal;font-size:42.43465805px;line-height:106.08664703px;font-family:Oxanium;-inkscape-font-specification:'Oxanium Bold';letter-spacing:-0.88405544px;word-spacing:4.42027712px;fill:#595959;fill-opacity:1"
       id="path847" /></g><metadata
     id="metadata831"><rdf:RDF><cc:Work
         rdf:about=""><dc:title></dc:title><dc:format>image/svg+xml</dc:format><dc:type
           rdf:resource="http://purl.org/dc/dcmitype/StillImage" /></cc:Work></rdf:RDF></metadata></svg>